<svg xmlns="http://www.w3.org/2000/svg" viewBox="0 0 64 64" role="img" aria-label="Local Live File Viewer">
  <defs>
    <linearGradient id="bg" x1="10" y1="8" x2="54" y2="58" gradientUnits="userSpaceOnUse">
      <stop offset="0" stop-color="#17c3b2" />
      <stop offset="0.52" stop-color="#2563eb" />
      <stop offset="1" stop-color="#7c3aed" />
    </linearGradient>
    <linearGradient id="file" x1="19" y1="14" x2="46" y2="51" gradientUnits="userSpaceOnUse">
      <stop offset="0" stop-color="#ffffff" />
      <stop offset="1" stop-color="#dbeafe" />
    </linearGradient>
    <filter id="shadow" x="-20%" y="-20%" width="140%" height="140%">
      <feDropShadow dx="0" dy="4" stdDeviation="4" flood-color="#0f172a" flood-opacity="0.32" />
    </filter>
  </defs>
  <rect width="64" height="64" rx="14" fill="url(#bg)" />
  <path d="M46 13H21a5 5 0 0 0-5 5v28a5 5 0 0 0 5 5h22a5 5 0 0 0 5-5V15a2 2 0 0 0-2-2Z" fill="#0f172a" opacity="0.2" />
  <path d="M44 11H20a5 5 0 0 0-5 5v28a5 5 0 0 0 5 5h24a5 5 0 0 0 5-5V16a5 5 0 0 0-5-5Z" fill="url(#file)" filter="url(#shadow)" />
  <path d="M36 11v9a3 3 0 0 0 3 3h10" fill="#bfdbfe" />
  <path d="M36 11v9a3 3 0 0 0 3 3h10" fill="none" stroke="#93c5fd" stroke-width="1.5" stroke-linejoin="round" />
  <rect x="21" y="25" width="9" height="7" rx="1.8" fill="#2563eb" />
  <rect x="33" y="25" width="10" height="7" rx="1.8" fill="#14b8a6" />
  <rect x="21" y="35" width="22" height="7" rx="1.8" fill="#7c3aed" />
  <path d="M19 18h9" stroke="#64748b" stroke-width="2" stroke-linecap="round" />
  <circle cx="47" cy="47" r="8" fill="#10b981" stroke="#ecfeff" stroke-width="3" />
  <path d="M42.8 47h2.7l1.3-3.2 2 6 1.4-2.8h1.9" fill="none" stroke="#ecfeff" stroke-width="2" stroke-linecap="round" stroke-linejoin="round" />
</svg>
